<?xml version="1.0" encoding="UTF-8"?>
<!-- Generator: visioncortex VTracer 0.6.4 -->
<svg version="1.1" xmlns="http://www.w3.org/2000/svg" width="1024" height="1024">

<path d="M0 0 C83.49 0 166.98 0 253 0 C253 0.66 253 1.32 253 2 C255.64 2 258.28 2 261 2 C264.96 3.485 264.96 3.485 269 5 C269 5.66 269 6.32 269 7 C271.475 7.99 271.475 7.99 274 9 C277.3 11.97 280.6 14.94 284 18 C286.475 23.94 286.475 23.94 289 30 C289 36.93 289 43.86 289 51 C287.35 56.28 285.7 61.56 284 67 C282.68 70.96 281.36 74.92 280 79 C278.515 83.455 278.515 83.455 277 88 C275.35 93.28 273.7 98.56 272 104 C270.515 107.96 270.515 107.96 269 112 C267.35 117.61 265.7 123.22 264 129 C261.525 136.425 261.525 136.425 259 144 C257.35 147.63 255.7 151.26 254 155 C250.7 159.29 247.4 163.58 244 168 C243.01 168.33 242.02 168.66 241 169 C240.67 170.32 240.34 171.64 240 173 C239.01 173.33 238.02 173.66 237 174 C237 174.66 237 175.32 237 176 C234.03 177.98 234.03 177.98 231 180 C230.34 180 229.68 180 229 180 C229 180.66 229 181.32 229 182 C225.04 184.97 225.04 184.97 221 188 C215.06 189.98 209.12 191.96 203 194 C200.03 194.66 197.06 195.32 194 196 C90.05 196.495 90.05 196.495 -16 197 C-18.97 197.33 -21.94 197.66 -25 198 C-25.33 198.99 -25.66 199.98 -26 201 C-26.66 201 -27.32 201 -28 201 C-28.66 202.98 -29.32 204.96 -30 207 C-30.99 209.64 -31.98 212.28 -33 215 C-34.485 220.94 -34.485 220.94 -36 227 C-37.98 233.435 -37.98 233.435 -40 240 C-40.66 240 -41.32 240 -42 240 C-42.33 242.97 -42.66 245.94 -43 249 C-44.485 253.455 -44.485 253.455 -46 258 C-47.65 263.61 -49.3 269.22 -51 275 C-53.31 281.27 -55.62 287.54 -58 294 C-58.99 298.29 -59.98 302.58 -61 307 C-62.32 310.63 -63.64 314.26 -65 318 C-66.32 322.29 -67.64 326.58 -69 331 C-70.65 336.28 -72.3 341.56 -74 347 C-74.66 349.64 -75.32 352.28 -76 355 C-76.99 357.64 -77.98 360.28 -79 363 C-79.66 365.97 -80.32 368.94 -81 372 C-81.33 372.66 -81.66 373.32 -82 374 C-82 377.96 -82 381.92 -82 386 C-79.03 389.96 -79.03 389.96 -76 394 C-73.69 394.66 -71.38 395.32 -69 396 C-39.3 396.495 -39.3 396.495 -9 397 C-9.33 398.32 -9.66 399.64 -10 401 C-14.29 401.33 -18.58 401.66 -23 402 C-24.98 403.32 -26.96 404.64 -29 406 C-29.66 406 -30.32 406 -31 406 C-31.66 407.65 -32.32 409.3 -33 411 C-33.66 411 -34.32 411 -35 411 C-35.66 412.32 -36.32 413.64 -37 415 C-38.98 417.64 -40.96 420.28 -43 423 C-44.65 423.66 -46.3 424.32 -48 425 C-48 425.66 -48 426.32 -48 427 C-49.32 428.32 -50.64 429.64 -52 431 C-53.32 434.3 -54.64 437.6 -56 441 C-56.33 441.99 -56.66 442.98 -57 444 C-57.66 444 -58.32 444 -59 444 C-59.33 446.31 -59.66 448.62 -60 451 C-60.66 451 -61.32 451 -62 451 C-62 451.66 -62 452.32 -62 453 C-64.64 453.99 -67.28 454.98 -70 456 C-71.65 457.65 -73.3 459.3 -75 461 C-76.485 462.485 -76.485 462.485 -78 464 C-78.99 467.63 -79.98 471.26 -81 475 C-81.66 479.95 -82.32 484.9 -83 490 C-83.66 490.66 -84.32 491.32 -85 492 C-95.89 492.495 -95.89 492.495 -107 493 C-107 493.66 -107 494.32 -107 495 C-111.95 496.485 -111.95 496.485 -117 498 C-120.63 499.65 -124.26 501.3 -128 503 C-128.99 503 -129.98 503 -131 503 C-131 503.66 -131 504.32 -131 505 C-132.32 505.66 -133.64 506.32 -135 507 C-137.31 506.67 -139.62 506.34 -142 506 C-146.95 504.515 -146.95 504.515 -152 503 C-159.92 501.515 -159.92 501.515 -168 500 C-172.455 498.515 -172.455 498.515 -177 497 C-177.66 496.67 -178.32 496.34 -179 496 C-179 495.34 -179 494.68 -179 494 C-180.65 493.67 -182.3 493.34 -184 493 C-186.64 491.02 -189.28 489.04 -192 487 C-193.98 485.02 -193.98 485.02 -196 483 C-197.32 480.03 -198.64 477.06 -200 474 C-202.64 472.02 -205.28 470.04 -208 468 C-208.99 467.67 -209.98 467.34 -211 467 C-234.1 466.67 -257.2 466.34 -281 466 C-284.96 464.35 -288.92 462.7 -293 461 C-294.98 459.68 -296.96 458.36 -299 457 C-301.31 454.36 -303.62 451.72 -306 449 C-306.66 447.02 -307.32 445.04 -308 443 C-308.66 443 -309.32 443 -310 443 C-310.99 440.36 -311.98 437.72 -313 435 C-313 429.72 -313 424.44 -313 419 C-311.02 411.74 -309.04 404.48 -307 397 C-304.69 390.07 -302.38 383.14 -300 376 C-298.02 369.07 -296.04 362.14 -294 355 C-292.02 348.07 -290.04 341.14 -288 334 C-286.02 328.555 -286.02 328.555 -284 323 C-281.525 313.595 -281.525 313.595 -279 304 C-277.68 300.7 -276.36 297.4 -275 294 C-274.34 291.03 -273.68 288.06 -273 285 C-271.68 281.7 -270.36 278.4 -269 275 C-267.68 270.38 -266.36 265.76 -265 261 C-264.34 261 -263.68 261 -263 261 C-262.67 257.7 -262.34 254.4 -262 251 C-261.01 248.03 -260.02 245.06 -259 242 C-258.34 242 -257.68 242 -257 242 C-256.67 239.03 -256.34 236.06 -256 233 C-253.36 223.76 -250.72 214.52 -248 205 C-247.01 201.7 -246.02 198.4 -245 195 C-243.68 191.7 -242.36 188.4 -241 185 C-240.01 182.69 -239.02 180.38 -238 178 C-236.68 175.03 -235.36 172.06 -234 169 C-233.34 168.01 -232.68 167.02 -232 166 C-231.34 166 -230.68 166 -230 166 C-229.34 164.35 -228.68 162.7 -228 161 C-227.67 160.34 -227.34 159.68 -227 159 C-226.34 159 -225.68 159 -225 159 C-224.67 158.01 -224.34 157.02 -224 156 C-222.68 155.01 -221.36 154.02 -220 153 C-219.01 151.35 -218.02 149.7 -217 148 C-215.02 147.34 -213.04 146.68 -211 146 C-210.67 145.01 -210.34 144.02 -210 143 C-208.35 141.68 -206.7 140.36 -205 139 C-202.36 138.67 -199.72 138.34 -197 138 C-197 137.34 -197 136.68 -197 136 C-195.68 135.34 -194.36 134.68 -193 134 C-191.68 134 -190.36 134 -189 134 C-189 133.34 -189 132.68 -189 132 C-182.565 130.02 -182.565 130.02 -176 128 C-136.4 127.505 -136.4 127.505 -96 127 C-93.525 126.505 -93.525 126.505 -91 126 C-91 125.34 -91 124.68 -91 124 C-89.68 123.34 -88.36 122.68 -87 122 C-86.01 119.03 -85.02 116.06 -84 113 C-81.525 104.09 -81.525 104.09 -79 95 C-78.01 92.03 -77.02 89.06 -76 86 C-73.525 78.575 -73.525 78.575 -71 71 C-70.67 69.68 -70.34 68.36 -70 67 C-69.34 67 -68.68 67 -68 67 C-67.67 64.36 -67.34 61.72 -67 59 C-65.68 56.36 -64.36 53.72 -63 51 C-61.02 46.05 -61.02 46.05 -59 41 C-57.02 38.03 -55.04 35.06 -53 32 C-52.34 32 -51.68 32 -51 32 C-50.34 30.35 -49.68 28.7 -49 27 C-47.35 26.01 -45.7 25.02 -44 24 C-43.67 23.34 -43.34 22.68 -43 22 C-42.34 22 -41.68 22 -41 22 C-41 21.34 -41 20.68 -41 20 C-39.35 19.01 -37.7 18.02 -36 17 C-35.67 16.34 -35.34 15.68 -35 15 C-33.68 14.67 -32.36 14.34 -31 14 C-30.67 13.34 -30.34 12.68 -30 12 C-26.04 10.02 -22.08 8.04 -18 6 C-15.03 5.01 -12.06 4.02 -9 3 C-6.03 2.01 -3.06 1.02 0 0 Z " fill="#CFE113" transform="translate(523,197)"/>
<path d="M0 0 C1.65 0 3.3 0 5 0 C6.65 1.65 8.3 3.3 10 5 C11.98 7.97 13.96 10.94 16 14 C17.98 18.62 19.96 23.24 22 28 C25.465 39.385 25.465 39.385 29 51 C29.66 54.63 30.32 58.26 31 62 C31.33 65.96 31.66 69.92 32 74 C32 79.94 32 85.88 32 92 C30.515 102.89 30.515 102.89 29 114 C27.35 119.94 25.7 125.88 24 132 C20.535 140.91 20.535 140.91 17 150 C13.37 156.93 9.74 163.86 6 171 C2.04 176.61 -1.92 182.22 -6 188 C-8.97 191.63 -11.94 195.26 -15 199 C-16.65 200.65 -18.3 202.3 -20 204 C-25.94 209.94 -31.88 215.88 -38 222 C-42.29 225.3 -46.58 228.6 -51 232 C-54.63 234.64 -58.26 237.28 -62 240 C-68.93 244.455 -68.93 244.455 -76 249 C-79.63 250.98 -83.26 252.96 -87 255 C-94.59 258.96 -102.18 262.92 -110 267 C-120.23 271.29 -130.46 275.58 -141 280 C-149.91 282.97 -158.82 285.94 -168 289 C-180.375 292.465 -180.375 292.465 -193 296 C-199.93 297.65 -206.86 299.3 -214 301 C-225.88 302.98 -225.88 302.98 -238 305 C-247.9 305 -257.8 305 -268 305 C-274.6 303.68 -281.2 302.36 -288 301 C-292.62 299.02 -297.24 297.04 -302 295 C-308.93 290.05 -308.93 290.05 -316 285 C-320.95 280.05 -320.95 280.05 -326 275 C-328.97 270.38 -331.94 265.76 -335 261 C-336.65 257.37 -338.3 253.74 -340 250 C-340.99 246.04 -341.98 242.08 -343 238 C-343 232.72 -343 227.44 -343 222 C-341.68 217.05 -340.36 212.1 -339 207 C-336.36 201.72 -333.72 196.44 -331 191 C-330.01 188.03 -329.02 185.06 -328 182 C-327.34 176.72 -326.68 171.44 -326 166 C-325.01 163.69 -324.02 161.38 -323 159 C-322.67 158.67 -322.34 158.34 -322 158 C-317.05 157.01 -317.05 157.01 -312 156 C-310.02 154.02 -310.02 154.02 -308 152 C-306.68 147.71 -305.36 143.42 -304 139 C-302.02 135.37 -300.04 131.74 -298 128 C-297.34 127.34 -296.68 126.68 -296 126 C-294.02 126 -292.04 126 -290 126 C-287.36 120.72 -284.72 115.44 -282 110 C-280.68 108.68 -279.36 107.36 -278 106 C-275.36 106 -272.72 106 -270 106 C-270 106.66 -270 107.32 -270 108 C-267.36 107.01 -264.72 106.02 -262 105 C-259.03 101.535 -259.03 101.535 -256 98 C-254.68 96.02 -253.36 94.04 -252 92 C-250.35 90.02 -248.7 88.04 -247 86 C-243.535 85.505 -243.535 85.505 -240 85 C-236.7 86.65 -233.4 88.3 -230 90 C-228.35 91.32 -226.7 92.64 -225 94 C-218.73 98.62 -212.46 103.24 -206 108 C-201.71 109.98 -197.42 111.96 -193 114 C-189.37 114.99 -185.74 115.98 -182 117 C-176.72 117.99 -171.44 118.98 -166 120 C-161.38 120.99 -156.76 121.98 -152 123 C-147.05 123 -142.1 123 -137 123 C-131.06 121.35 -125.12 119.7 -119 118 C-116.03 115.36 -113.06 112.72 -110 110 C-108.02 107.36 -106.04 104.72 -104 102 C-101.36 98.7 -98.72 95.4 -96 92 C-93.69 90.68 -91.38 89.36 -89 88 C-85.37 88 -81.74 88 -78 88 C-77.34 88.66 -76.68 89.32 -76 90 C-74.02 90 -72.04 90 -70 90 C-69.34 88.35 -68.68 86.7 -68 85 C-66.35 81.37 -64.7 77.74 -63 74 C-61.35 72.68 -59.7 71.36 -58 70 C-54.7 70 -51.4 70 -48 70 C-47.34 64.72 -46.68 59.44 -46 54 C-44.02 52.02 -42.04 50.04 -40 48 C-33.73 46.35 -27.46 44.7 -21 43 C-20.34 43 -19.68 43 -19 43 C-18.34 41.35 -17.68 39.7 -17 38 C-16.34 38 -15.68 38 -15 38 C-14.34 36.02 -13.68 34.04 -13 32 C-11.02 28.04 -9.04 24.08 -7 20 C-5.02 14.06 -3.04 8.12 -1 2 C-0.67 1.34 -0.34 0.68 0 0 Z " fill="#E33D27" transform="translate(782,506)"/>
<path d="M0 0 C1.98 0.495 1.98 0.495 4 1 C7.96 7.435 7.96 7.435 12 14 C13.98 18.95 15.96 23.9 18 29 C19.98 35.6 21.96 42.2 24 49 C24.66 52.63 25.32 56.26 26 60 C26.33 63.96 26.66 67.92 27 72 C27 77.94 27 83.88 27 90 C25.515 100.89 25.515 100.89 24 112 C22.35 117.94 20.7 123.88 19 130 C15.535 138.91 15.535 138.91 12 148 C8.37 154.93 4.74 161.86 1 169 C-2.96 174.61 -6.92 180.22 -11 186 C-13.97 189.63 -16.94 193.26 -20 197 C-21.65 198.65 -23.3 200.3 -25 202 C-30.94 207.94 -36.88 213.88 -43 220 C-47.29 223.3 -51.58 226.6 -56 230 C-59.63 232.64 -63.26 235.28 -67 238 C-73.93 242.455 -73.93 242.455 -81 247 C-84.63 248.98 -88.26 250.96 -92 253 C-99.59 256.96 -107.18 260.92 -115 265 C-125.23 269.29 -135.46 273.58 -146 278 C-154.91 280.97 -163.82 283.94 -173 287 C-185.375 290.465 -185.375 290.465 -198 294 C-204.93 295.65 -211.86 297.3 -219 299 C-230.88 300.98 -230.88 300.98 -243 303 C-252.9 303 -262.8 303 -273 303 C-279.6 301.68 -286.2 300.36 -293 299 C-297.62 297.02 -302.24 295.04 -307 293 C-313.93 288.05 -313.93 288.05 -321 283 C-325.95 278.05 -325.95 278.05 -331 273 C-332.98 270.03 -334.96 267.06 -337 264 C-336.67 263.34 -336.34 262.68 -336 262 C-334.515 263.485 -334.515 263.485 -333 265 C-331.68 265.33 -330.36 265.66 -329 266 C-329 266.66 -329 267.32 -329 268 C-327.68 268.66 -326.36 269.32 -325 270 C-321.7 271.32 -318.4 272.64 -315 274 C-309.72 275.65 -304.44 277.3 -299 279 C-293.72 279.66 -288.44 280.32 -283 281 C-274.09 281 -265.18 281 -256 281 C-251.71 280.34 -247.42 279.68 -243 279 C-240.36 279 -237.72 279 -235 279 C-235 278.34 -235 277.68 -235 277 C-228.565 275.515 -228.565 275.515 -222 274 C-219.03 273.01 -216.06 272.02 -213 271 C-208.05 269.35 -203.1 267.7 -198 266 C-197.34 265.34 -196.68 264.68 -196 264 C-192.04 262.68 -188.08 261.36 -184 260 C-183.01 258.35 -182.02 256.7 -181 255 C-180.34 255 -179.68 255 -179 255 C-178.67 252.69 -178.34 250.38 -178 248 C-177.34 247.01 -176.68 246.02 -176 245 C-173.36 245 -170.72 245 -168 245 C-166.68 245.99 -165.36 246.98 -164 248 C-164 248.66 -164 249.32 -164 250 C-153.11 243.565 -153.11 243.565 -142 237 C-141.01 237 -140.02 237 -139 237 C-139 236.34 -139 235.68 -139 235 C-139.99 234.67 -140.98 234.34 -142 234 C-142.66 233.01 -143.32 232.02 -144 231 C-144 228.69 -144 226.38 -144 224 C-143.01 222.68 -142.02 221.36 -141 220 C-140.01 220 -139.02 220 -138 220 C-138 219.34 -138 218.68 -138 218 C-135.36 217.01 -132.72 216.02 -130 215 C-127.69 215 -125.38 215 -123 215 C-119.7 215.66 -116.4 216.32 -113 217 C-111.02 217 -109.04 217 -107 217 C-107 216.34 -107 215.68 -107 215 C-104.525 213.02 -104.525 213.02 -102 211 C-101.01 211 -100.02 211 -99 211 C-98.34 209.68 -97.68 208.36 -97 207 C-96.34 207 -95.68 207 -95 207 C-95 206.34 -95 205.68 -95 205 C-93.02 203.68 -91.04 202.36 -89 201 C-86.525 199.02 -86.525 199.02 -84 197 C-84 194.69 -84 192.38 -84 190 C-84.66 190 -85.32 190 -86 190 C-86 187.69 -86 185.38 -86 183 C-85.34 182.01 -84.68 181.02 -84 180 C-81.69 179.67 -79.38 179.34 -77 179 C-75.68 179.33 -74.36 179.66 -73 180 C-70.03 180 -67.06 180 -64 180 C-63.67 179.01 -63.34 178.02 -63 177 C-61.35 175.35 -59.7 173.7 -58 172 C-57.67 171.34 -57.34 170.68 -57 170 C-56.34 170 -55.68 170 -55 170 C-55 169.34 -55 168.68 -55 168 C-54.34 168 -53.68 168 -53 168 C-52.34 166.68 -51.68 165.36 -51 164 C-48.69 161.36 -46.38 158.72 -44 156 C-43.34 156 -42.68 156 -42 156 C-41.34 154.35 -40.68 152.7 -40 151 C-39.34 150.01 -38.68 149.02 -38 148 C-37.34 148 -36.68 148 -36 148 C-35.34 146.68 -34.68 145.36 -34 144 C-33.01 142.02 -32.02 140.04 -31 138 C-30.34 138 -29.68 138 -29 138 C-28.34 136.35 -27.68 134.7 -27 133 C-25.35 130.03 -23.7 127.06 -22 124 C-21.34 124 -20.68 124 -20 124 C-19.67 122.35 -19.34 120.7 -19 119 C-18.67 118.01 -18.34 117.02 -18 116 C-17.34 116 -16.68 116 -16 116 C-15.67 114.35 -15.34 112.7 -15 111 C-14.67 110.01 -14.34 109.02 -14 108 C-13.34 108 -12.68 108 -12 108 C-11.34 104.7 -10.68 101.4 -10 98 C-8.68 94.7 -7.36 91.4 -6 88 C-4.35 82.72 -2.7 77.44 -1 72 C0.485 54.18 0.485 54.18 2 36 C2 32.04 2 28.08 2 24 C1.34 16.08 0.68 8.16 0 0 Z " fill="#BB2819" transform="translate(787,508)"/>
<path d="M0 0 C5.94 0 11.88 0 18 0 C24.6 0.99 31.2 1.98 38 3 C40.64 3.99 43.28 4.98 46 6 C46 7.65 46 9.3 46 11 C44.02 12.65 42.04 14.3 40 16 C36.7 17.32 33.4 18.64 30 20 C22.08 24.455 22.08 24.455 14 29 C10.535 32.96 10.535 32.96 7 37 C6.34 38.65 5.68 40.3 5 42 C4.67 44.31 4.34 46.62 4 49 C3.01 50.32 2.02 51.64 1 53 C-5.435 54.98 -5.435 54.98 -12 57 C-14.97 58.98 -17.94 60.96 -21 63 C-21.33 63.33 -21.66 63.66 -22 64 C-22.33 70.6 -22.66 77.2 -23 84 C-24.98 85.485 -24.98 85.485 -27 87 C-33.93 90.465 -33.93 90.465 -41 94 C-44.465 97.96 -44.465 97.96 -48 102 C-48.99 105.3 -49.98 108.6 -51 112 C-52.32 119.92 -53.64 127.84 -55 136 C-55.33 136.66 -55.66 137.32 -56 138 C-59.3 137.67 -62.6 137.34 -66 137 C-71.28 136.01 -76.56 135.02 -82 134 C-94.87 131.525 -94.87 131.525 -108 129 C-109.98 128.01 -111.96 127.02 -114 126 C-118.455 122.04 -118.455 122.04 -123 118 C-125.97 116.02 -128.94 114.04 -132 112 C-134.31 110.35 -136.62 108.7 -139 107 C-138.67 105.02 -138.34 103.04 -138 101 C-136.02 97.37 -134.04 93.74 -132 90 C-129.03 85.545 -129.03 85.545 -126 81 C-125.34 81 -124.68 81 -124 81 C-123.34 79.35 -122.68 77.7 -122 76 C-118.37 71.71 -114.74 67.42 -111 63 C-108.69 60.36 -106.38 57.72 -104 55 C-100.7 52.03 -97.4 49.06 -94 46 C-90.37 43.03 -86.74 40.06 -83 37 C-76.07 32.05 -76.07 32.05 -69 27 C-62.73 23.37 -56.46 19.74 -50 16 C-46.37 14.35 -42.74 12.7 -39 11 C-32.07 8.69 -25.14 6.38 -18 4 C-12.06 2.68 -6.12 1.36 0 0 Z " fill="#DF3F29" transform="translate(698,484)"/>
<path d="M0 0 C2.97 0 5.94 0 9 0 C8.67 1.32 8.34 2.64 8 4 C6.68 6.31 5.36 8.62 4 11 C2.68 14.63 1.36 18.26 0 22 C-0.66 24.64 -1.32 27.28 -2 30 C-2 34.29 -2 38.58 -2 43 C-1.01 48.28 -0.02 53.56 1 59 C2.65 62.96 4.3 66.92 6 71 C8.31 74.63 10.62 78.26 13 82 C15.97 85.63 18.94 89.26 22 93 C26.455 96.96 26.455 96.96 31 101 C34.63 103.31 38.26 105.62 42 108 C42.33 109.32 42.66 110.64 43 112 C39.37 113.65 35.74 115.3 32 117 C28.04 118.32 24.08 119.64 20 121 C17.69 122.65 15.38 124.3 13 126 C10.69 126 8.38 126 6 126 C3.36 124.35 0.72 122.7 -2 121 C-4.64 120.67 -7.28 120.34 -10 120 C-10.99 120.99 -11.98 121.98 -13 123 C-15.97 123 -18.94 123 -22 123 C-25.3 121.02 -28.6 119.04 -32 117 C-42.56 113.04 -53.12 109.08 -64 105 C-66.97 103.35 -69.94 101.7 -73 100 C-74.65 98.02 -76.3 96.04 -78 94 C-78.99 90.7 -79.98 87.4 -81 84 C-81.33 81.69 -81.66 79.38 -82 77 C-82 71.06 -82 65.12 -82 59 C-80.35 55.04 -78.7 51.08 -77 47 C-75.02 44.36 -73.04 41.72 -71 39 C-68.36 36.69 -65.72 34.38 -63 32 C-60.36 29.69 -57.72 27.38 -55 25 C-51.7 23.02 -48.4 21.04 -45 19 C-39.72 16.03 -34.44 13.06 -29 10 C-25.37 8.35 -21.74 6.7 -18 5 C-14.04 3.68 -10.08 2.36 -6 1 C-3.03 0.505 -3.03 0.505 0 0 Z " fill="#DF3D26" transform="translate(432,701)"/>
<path d="M0 0 C1.65 0.66 3.3 1.32 5 2 C8.465 4.475 8.465 4.475 12 7 C15.63 8.65 19.26 10.3 23 12 C27.95 13.485 27.95 13.485 33 15 C39.6 16.32 46.2 17.64 53 19 C53.99 19.66 54.98 20.32 56 21 C55.67 22.32 55.34 23.64 55 25 C48.07 29.95 48.07 29.95 41 35 C40.34 35 39.68 35 39 35 C38.34 36.32 37.68 37.64 37 39 C35.02 41.31 33.04 43.62 31 46 C29.35 48.97 27.7 51.94 26 55 C25.01 58.3 24.02 61.6 23 65 C23 71.93 23 78.86 23 86 C24.98 91.61 26.96 97.22 29 103 C29.66 104.32 30.32 105.64 31 107 C31 108.65 31 110.3 31 112 C27.04 112 23.08 112 19 112 C15.7 111.01 12.4 110.02 9 109 C5.7 107.02 2.4 105.04 -1 103 C-3.64 100.69 -6.28 98.38 -9 96 C-10.65 93.03 -12.3 90.06 -14 87 C-14.99 84.36 -15.98 81.72 -17 79 C-17.495 76.03 -17.495 76.03 -18 73 C-18 68.38 -18 63.76 -18 59 C-16.35 53.72 -14.7 48.44 -13 43 C-11.02 36.07 -9.04 29.14 -7 22 C-4.69 14.74 -2.38 7.48 0 0 Z " fill="#D03824" transform="translate(321,695)"/>
<path d="M0 0 C2.64 0 5.28 0 8 0 C8 1.65 8 3.3 8 5 C6.02 6.65 4.04 8.3 2 10 C-1.3 11.32 -4.6 12.64 -8 14 C-15.92 18.455 -15.92 18.455 -24 23 C-27.465 26.96 -27.465 26.96 -31 31 C-31.66 32.65 -32.32 34.3 -33 36 C-33.33 38.31 -33.66 40.62 -34 43 C-34.99 44.32 -35.98 45.64 -37 47 C-43.435 48.98 -43.435 48.98 -50 51 C-52.97 52.98 -55.94 54.96 -59 57 C-59.33 57.33 -59.66 57.66 -60 58 C-60.33 64.6 -60.66 71.2 -61 78 C-62.32 78.99 -63.64 79.98 -65 81 C-69.62 83.31 -74.24 85.62 -79 88 C-81.31 90.64 -83.62 93.28 -86 96 C-86.99 99.3 -87.98 102.6 -89 106 C-89.99 106.33 -90.98 106.66 -92 107 C-92.66 112.28 -93.32 117.56 -94 123 C-94.66 124.98 -95.32 126.96 -96 129 C-100.62 128.67 -105.24 128.34 -110 128 C-112.31 127.34 -114.62 126.68 -117 126 C-120.96 125.505 -120.96 125.505 -125 125 C-125 124.01 -125 123.02 -125 122 C-124.01 121.505 -124.01 121.505 -123 121 C-121.02 116.05 -119.04 111.1 -117 106 C-115.02 105.01 -115.02 105.01 -113 104 C-113 102.35 -113 100.7 -113 99 C-107.555 90.09 -107.555 90.09 -102 81 C-101.505 79.515 -101.505 79.515 -101 78 C-99.68 76.68 -98.36 75.36 -97 74 C-96.34 74 -95.68 74 -95 74 C-94.34 72.35 -93.68 70.7 -93 69 C-92.01 68.01 -91.02 67.02 -90 66 C-89.01 64.35 -88.02 62.7 -87 61 C-86.34 60.01 -85.68 59.02 -85 58 C-84.34 58 -83.68 58 -83 58 C-82.34 56.68 -81.68 55.36 -81 54 C-80.34 54 -79.68 54 -79 54 C-79 53.34 -79 52.68 -79 52 C-78.34 52 -77.68 52 -77 52 C-77 51.34 -77 50.68 -77 50 C-76.34 50 -75.68 50 -75 50 C-74.34 48.68 -73.68 47.36 -73 46 C-72.01 45.01 -71.02 44.02 -70 43 C-69.34 43 -68.68 43 -68 43 C-68 42.34 -68 41.68 -68 41 C-65.36 38.69 -62.72 36.38 -60 34 C-58.02 32.35 -56.04 30.7 -54 29 C-53.34 29 -52.68 29 -52 29 C-52 28.34 -52 27.68 -52 27 C-51.01 26.34 -50.02 25.68 -49 25 C-48.01 25 -47.02 25 -46 25 C-46 24.34 -46 23.68 -46 23 C-44.02 22.34 -42.04 21.68 -40 21 C-40 20.34 -40 19.68 -40 19 C-35.05 16.36 -30.1 13.72 -25 11 C-22.03 10.34 -19.06 9.68 -16 9 C-16 8.34 -16 7.68 -16 7 C-11.71 5.68 -7.42 4.36 -3 3 C-2.01 2.67 -1.02 2.34 0 2 C0 1.34 0 0.68 0 0 Z " fill="#BC2817" transform="translate(736,490)"/>
<path d="M0 0 C0.99 0 1.98 0 3 0 C3.33 2.97 3.66 5.94 4 9 C5.32 11.97 6.64 14.94 8 18 C8 18.66 8 19.32 8 20 C9.32 20.66 10.64 21.32 12 22 C12 22.66 12 23.32 12 24 C12.99 24.33 13.98 24.66 15 25 C15 25.66 15 26.32 15 27 C16.98 27.66 18.96 28.32 21 29 C22.65 29.99 24.3 30.98 26 32 C28.64 32.66 31.28 33.32 34 34 C37.96 34.99 41.92 35.98 46 37 C48.64 37.66 51.28 38.32 54 39 C61.59 39 69.18 39 77 39 C77.66 38.67 78.32 38.34 79 38 C79.33 36.68 79.66 35.36 80 34 C80 29.71 80 25.42 80 21 C79.505 15.555 79.505 15.555 79 10 C79.99 10.33 80.98 10.66 82 11 C82.495 14.96 82.495 14.96 83 19 C83.66 19.33 84.32 19.66 85 20 C85 21.65 85 23.3 85 25 C86.32 25 87.64 25 89 25 C89.99 27.475 89.99 27.475 91 30 C91.495 31.485 91.495 31.485 92 33 C93.485 33.495 93.485 33.495 95 34 C95.99 35.65 96.98 37.3 98 39 C98 39.66 98 40.32 98 41 C98.66 41 99.32 41 100 41 C100.99 41.99 101.98 42.98 103 44 C104.32 44.66 105.64 45.32 107 46 C107 46.66 107 47.32 107 48 C108.65 48 110.3 48 112 48 C113.98 50.31 115.96 52.62 118 55 C116.68 55.99 115.36 56.98 114 58 C112.02 58 110.04 58 108 58 C106.68 58.99 105.36 59.98 104 61 C103.01 61 102.02 61 101 61 C101 61.66 101 62.32 101 63 C98.69 63.99 96.38 64.98 94 66 C92.35 66.66 90.7 67.32 89 68 C87.35 67.34 85.7 66.68 84 66 C84 65.34 84 64.68 84 64 C82.35 63.67 80.7 63.34 79 63 C77.35 62.34 75.7 61.68 74 61 C70.7 61 67.4 61 64 61 C64.33 61.66 64.66 62.32 65 63 C61.7 63 58.4 63 55 63 C54.01 62.67 53.02 62.34 52 62 C52 61.34 52 60.68 52 60 C50.35 59.67 48.7 59.34 47 59 C47 58.34 47 57.68 47 57 C45.35 57 43.7 57 42 57 C40.68 56.34 39.36 55.68 38 55 C35.69 54.34 33.38 53.68 31 53 C29.68 52.34 28.36 51.68 27 51 C27 50.01 27 49.02 27 48 C23.37 47.67 19.74 47.34 16 47 C14.68 46.34 13.36 45.68 12 45 C12 44.34 12 43.68 12 43 C11.01 43 10.02 43 9 43 C7.35 41.35 5.7 39.7 4 38 C2.515 34.535 2.515 34.535 1 31 C0.67 26.38 0.34 21.76 0 17 C-0.33 15.35 -0.66 13.7 -1 12 C-1 8.7 -1 5.4 -1 2 C-0.67 1.34 -0.34 0.68 0 0 Z " fill="#BA2719" transform="translate(352,756)"/>
<path d="M0 0 C2.64 0 5.28 0 8 0 C8.99 0.66 9.98 1.32 11 2 C11 5.3 11 8.6 11 12 C9.35 14.31 7.7 16.62 6 19 C2.04 21.64 -1.92 24.28 -6 27 C-6.66 27 -7.32 27 -8 27 C-8 27.66 -8 28.32 -8 29 C-11.465 30.98 -11.465 30.98 -15 33 C-19.62 36.63 -24.24 40.26 -29 44 C-30.98 46.31 -32.96 48.62 -35 51 C-36.65 52.32 -38.3 53.64 -40 55 C-42.31 57.97 -44.62 60.94 -47 64 C-48.32 65.98 -49.64 67.96 -51 70 C-52.32 71.32 -53.64 72.64 -55 74 C-55.99 74 -56.98 74 -58 74 C-58 71.69 -58 69.38 -58 67 C-56.68 63.04 -55.36 59.08 -54 55 C-53.67 54.34 -53.34 53.68 -53 53 C-52.34 53 -51.68 53 -51 53 C-50.34 51.02 -49.68 49.04 -49 47 C-47.35 44.69 -45.7 42.38 -44 40 C-42.68 37.69 -41.36 35.38 -40 33 C-39.01 31.68 -38.02 30.36 -37 29 C-36.34 29 -35.68 29 -35 29 C-34.34 27.68 -33.68 26.36 -33 25 C-30.03 21.535 -30.03 21.535 -27 18 C-23.04 14.535 -23.04 14.535 -19 11 C-14.71 8.03 -10.42 5.06 -6 2 C-4.02 1.34 -2.04 0.68 0 0 Z " fill="#F57A68" transform="translate(536,623)"/>
<path d="M0 0 C2.97 0 5.94 0 9 0 C8.67 1.32 8.34 2.64 8 4 C6.68 6.31 5.36 8.62 4 11 C2.68 14.63 1.36 18.26 0 22 C-0.66 24.64 -1.32 27.28 -2 30 C-2 34.29 -2 38.58 -2 43 C-1.01 48.28 -0.02 53.56 1 59 C2.65 62.96 4.3 66.92 6 71 C8.31 74.63 10.62 78.26 13 82 C15.97 85.63 18.94 89.26 22 93 C26.455 96.96 26.455 96.96 31 101 C34.63 103.31 38.26 105.62 42 108 C42.33 109.32 42.66 110.64 43 112 C39.37 113.65 35.74 115.3 32 117 C28.04 118.32 24.08 119.64 20 121 C17.69 122.65 15.38 124.3 13 126 C10.69 126 8.38 126 6 126 C3.36 124.35 0.72 122.7 -2 121 C-4.64 120.67 -7.28 120.34 -10 120 C-10.99 120.99 -11.98 121.98 -13 123 C-15.97 123 -18.94 123 -22 123 C-25.3 121.02 -28.6 119.04 -32 117 C-42.56 113.04 -53.12 109.08 -64 105 C-66.97 103.35 -69.94 101.7 -73 100 C-74.65 98.02 -76.3 96.04 -78 94 C-78.99 90.7 -79.98 87.4 -81 84 C-81.33 81.69 -81.66 79.38 -82 77 C-82 71.06 -82 65.12 -82 59 C-81.67 59 -81.34 59 -81 59 C-80.34 63.29 -79.68 67.58 -79 72 C-78.67 76.62 -78.34 81.24 -78 86 C-77.01 88.31 -76.02 90.62 -75 93 C-73.68 93.99 -72.36 94.98 -71 96 C-71 96.66 -71 97.32 -71 98 C-70.01 98 -69.02 98 -68 98 C-68 98.66 -68 99.32 -68 100 C-63.05 100.99 -58.1 101.98 -53 103 C-53 103.99 -53 104.98 -53 106 C-51.35 106.66 -49.7 107.32 -48 108 C-45.03 108.66 -42.06 109.32 -39 110 C-36.03 110.99 -36.03 110.99 -33 112 C-33 112.66 -33 113.32 -33 114 C-31.35 114.33 -29.7 114.66 -28 115 C-28 115.66 -28 116.32 -28 117 C-24.7 117 -21.4 117 -18 117 C-17.01 116.34 -16.02 115.68 -15 115 C-12.03 115 -9.06 115 -6 115 C-2.7 116.32 0.6 117.64 4 119 C4.33 119.66 4.66 120.32 5 121 C6.65 121.33 8.3 121.66 10 122 C11.98 121.01 13.96 120.02 16 119 C17.65 118.67 19.3 118.34 21 118 C21 117.34 21 116.68 21 116 C22.98 115.01 24.96 114.02 27 113 C28.65 112.67 30.3 112.34 32 112 C33.65 111.34 35.3 110.68 37 110 C37 109.34 37 108.68 37 108 C35.02 107.01 35.02 107.01 33 106 C32.67 105.01 32.34 104.02 32 103 C30.35 103 28.7 103 27 103 C27 102.34 27 101.68 27 101 C25.02 100.34 23.04 99.68 21 99 C20.67 98.01 20.34 97.02 20 96 C19.34 96 18.68 96 18 96 C16.68 93.69 15.36 91.38 14 89 C12.35 87.35 10.7 85.7 9 84 C8.34 83.01 7.68 82.02 7 81 C6.34 80.67 5.68 80.34 5 80 C5 78.35 5 76.7 5 75 C3.515 74.505 3.515 74.505 2 74 C1.505 70.04 1.505 70.04 1 66 C0.34 65.67 -0.32 65.34 -1 65 C-1.99 62.69 -2.98 60.38 -4 58 C-4.495 54.04 -4.495 54.04 -5 50 C-5 45.38 -5 40.76 -5 36 C-3.68 28.08 -2.36 20.16 -1 12 C-0.67 11.34 -0.34 10.68 0 10 C0.66 10 1.32 10 2 10 C2.66 7.69 3.32 5.38 4 3 C1.03 3.99 -1.94 4.98 -5 6 C-5.99 6.66 -6.98 7.32 -8 8 C-18.395 9.485 -18.395 9.485 -29 11 C-28.67 10.34 -28.34 9.68 -28 9 C-22.72 7.02 -17.44 5.04 -12 3 C-8.04 2.01 -4.08 1.02 0 0 Z " fill="#9C3A30" transform="translate(432,701)"/>
<path d="M0 0 C0.66 0 1.32 0 2 0 C1.67 1.32 1.34 2.64 1 4 C0.01 6.31 -0.98 8.62 -2 11 C-2.33 11.99 -2.66 12.98 -3 14 C-4.65 15.65 -6.3 17.3 -8 19 C-11.63 22.96 -15.26 26.92 -19 31 C-20.32 32.65 -21.64 34.3 -23 36 C-25.64 38.31 -28.28 40.62 -31 43 C-32.32 43.66 -33.64 44.32 -35 45 C-35 45.66 -35 46.32 -35 47 C-35.66 47 -36.32 47 -37 47 C-37 47.66 -37 48.32 -37 49 C-38.98 50.65 -40.96 52.3 -43 54 C-43.99 54 -44.98 54 -46 54 C-46 54.66 -46 55.32 -46 56 C-47.98 56.66 -49.96 57.32 -52 58 C-52 58.66 -52 59.32 -52 60 C-55.96 61.98 -55.96 61.98 -60 64 C-60.66 64 -61.32 64 -62 64 C-62 64.66 -62 65.32 -62 66 C-65.96 67.32 -69.92 68.64 -74 70 C-76.64 70 -79.28 70 -82 70 C-82.99 69.34 -83.98 68.68 -85 68 C-85 66.35 -85 64.7 -85 63 C-83.68 62.01 -82.36 61.02 -81 60 C-78.03 58.68 -75.06 57.36 -72 56 C-66.72 53.36 -61.44 50.72 -56 48 C-51.38 45.36 -46.76 42.72 -42 40 C-33.09 33.07 -33.09 33.07 -24 26 C-18.72 20.72 -13.44 15.44 -8 10 C-5.36 6.7 -2.72 3.4 0 0 Z " fill="#F87967" transform="translate(754,572)"/>
<path d="M0 0 C0.99 0.66 1.98 1.32 3 2 C1.02 3.32 -0.96 4.64 -3 6 C-5.97 7.98 -8.94 9.96 -12 12 C-14.97 13.98 -17.94 15.96 -21 18 C-24.63 19.98 -28.26 21.96 -32 24 C-39.59 27.96 -47.18 31.92 -55 36 C-65.23 40.29 -75.46 44.58 -86 49 C-94.91 51.97 -103.82 54.94 -113 58 C-125.375 61.465 -125.375 61.465 -138 65 C-144.93 66.65 -151.86 68.3 -159 70 C-166.92 71.32 -174.84 72.64 -183 74 C-192.9 74 -202.8 74 -213 74 C-219.6 72.68 -226.2 71.36 -233 70 C-233 69.67 -233 69.34 -233 69 C-220.13 69.495 -220.13 69.495 -207 70 C-196.44 70 -185.88 70 -175 70 C-169.555 69.01 -169.555 69.01 -164 68 C-155.585 66.515 -155.585 66.515 -147 65 C-143.37 63.68 -139.74 62.36 -136 61 C-133.36 60.67 -130.72 60.34 -128 60 C-128 59.34 -128 58.68 -128 58 C-125.36 58 -122.72 58 -120 58 C-120 57.34 -120 56.68 -120 56 C-117.69 55.34 -115.38 54.68 -113 54 C-111.35 54 -109.7 54 -108 54 C-108 53.34 -108 52.68 -108 52 C-106.35 52 -104.7 52 -103 52 C-103 51.34 -103 50.68 -103 50 C-99.7 49.34 -96.4 48.68 -93 48 C-91.02 47.34 -89.04 46.68 -87 46 C-84.36 45.34 -81.72 44.68 -79 44 C-79 43.34 -79 42.68 -79 42 C-76.36 40.68 -73.72 39.36 -71 38 C-68.36 37.34 -65.72 36.68 -63 36 C-61.68 35.01 -60.36 34.02 -59 33 C-57.68 33 -56.36 33 -55 33 C-55 32.34 -55 31.68 -55 31 C-54.01 31 -53.02 31 -52 31 C-51.34 29.68 -50.68 28.36 -50 27 C-47.69 26.01 -45.38 25.02 -43 24 C-42.01 24 -41.02 24 -40 24 C-40 23.34 -40 22.68 -40 22 C-37.69 21.34 -35.38 20.68 -33 20 C-31.35 19.01 -29.7 18.02 -28 17 C-27.34 16.34 -26.68 15.68 -26 15 C-23.36 14.01 -20.72 13.02 -18 12 C-15.69 10.68 -13.38 9.36 -11 8 C-9.68 6.68 -8.36 5.36 -7 4 C-4.525 3.01 -4.525 3.01 -2 2 C-1.34 1.34 -0.68 0.68 0 0 Z " fill="#9A3A30" transform="translate(727,737)"/>

<path d="M0 0 C0.99 0.33 1.98 0.66 3 1 C1.02 3.31 -0.96 5.62 -3 8 C-3.66 8 -4.32 8 -5 8 C-5.33 9.32 -5.66 10.64 -6 12 C-7.485 12.495 -7.485 12.495 -9 13 C-9 13.66 -9 14.32 -9 15 C-10.98 16.32 -12.96 17.64 -15 19 C-15.66 19 -16.32 19 -17 19 C-17 19.66 -17 20.32 -17 21 C-19.64 22.98 -22.28 24.96 -25 27 C-30.94 28.98 -36.88 30.96 -43 33 C-45.97 33.66 -48.94 34.32 -52 35 C-122.62 35.33 -193.24 35.66 -266 36 C-265.67 35.01 -265.34 34.02 -265 33 C-195.7 32.67 -126.4 32.34 -55 32 C-52.03 31.01 -49.06 30.02 -46 29 C-43.36 28.67 -40.72 28.34 -38 28 C-36.02 27.01 -34.04 26.02 -32 25 C-30.35 25 -28.7 25 -27 25 C-26.34 23.68 -25.68 22.36 -25 21 C-23.35 20.01 -21.7 19.02 -20 18 C-19.01 18 -18.02 18 -17 18 C-17 17.34 -17 16.68 -17 16 C-16.01 15.67 -15.02 15.34 -14 15 C-12.68 13.35 -11.36 11.7 -10 10 C-9.34 10 -8.68 10 -8 10 C-7.67 8.35 -7.34 6.7 -7 5 C-5.02 4.01 -3.04 3.02 -1 2 C-0.67 1.34 -0.34 0.68 0 0 Z " fill="#D1DD54" transform="translate(769,358)"/>
<path d="M0 0 C2.31 0.33 4.62 0.66 7 1 C9.97 1.495 9.97 1.495 13 2 C36.43 2.33 59.86 2.66 84 3 C85.32 3.66 86.64 4.32 88 5 C88 5.99 88 6.98 88 8 C90.97 8.495 90.97 8.495 94 9 C94.99 12.3 95.98 15.6 97 19 C98.65 20.65 100.3 22.3 102 24 C103.32 25.32 104.64 26.64 106 28 C107.98 28.495 107.98 28.495 110 29 C110 29.66 110 30.32 110 31 C110.99 31 111.98 31 113 31 C113 31.66 113 32.32 113 33 C115.31 33 117.62 33 120 33 C120 33.99 120 34.98 120 36 C122.64 36.33 125.28 36.66 128 37 C128.99 37.33 129.98 37.66 131 38 C135.62 38 140.24 38 145 38 C147.97 38.33 150.94 38.66 154 39 C156.64 39 159.28 39 162 39 C162.99 38.34 163.98 37.68 165 37 C167.64 36.34 170.28 35.68 173 35 C175.31 33.68 177.62 32.36 180 31 C185.94 30.01 185.94 30.01 192 29 C192.99 28.505 192.99 28.505 194 28 C196.97 28 199.94 28 203 28 C203 27.34 203 26.68 203 26 C203.66 26 204.32 26 205 26 C205 24.02 205 22.04 205 20 C206.98 15.545 206.98 15.545 209 11 C209.33 11.99 209.66 12.98 210 14 C209.34 18.95 208.68 23.9 208 29 C207.34 29.66 206.68 30.32 206 31 C198.74 31.33 191.48 31.66 184 32 C184 32.66 184 33.32 184 34 C179.05 35.485 179.05 35.485 174 37 C170.37 38.65 166.74 40.3 163 42 C162.01 42 161.02 42 160 42 C160 42.66 160 43.32 160 44 C158.68 44.66 157.36 45.32 156 46 C153.69 45.67 151.38 45.34 149 45 C145.7 44.01 142.4 43.02 139 42 C133.72 41.01 128.44 40.02 123 39 C120.03 38.01 117.06 37.02 114 36 C113.34 35.67 112.68 35.34 112 35 C112 34.34 112 33.68 112 33 C110.35 32.67 108.7 32.34 107 32 C104.36 30.02 101.72 28.04 99 26 C97.68 24.68 96.36 23.36 95 22 C93.68 19.03 92.36 16.06 91 13 C88.36 11.02 85.72 9.04 83 7 C82.01 6.67 81.02 6.34 80 6 C56.9 5.67 33.8 5.34 10 5 C5.05 3.02 5.05 3.02 0 1 C0 0.67 0 0.34 0 0 Z " fill="#CDDA4A" transform="translate(232,658)"/>
<path d="M0 0 C0.33 0.66 0.66 1.32 1 2 C-0.32 6.95 -1.64 11.9 -3 17 C-3.33 17.66 -3.66 18.32 -4 19 C-4 22.96 -4 26.92 -4 31 C-2.02 33.64 -0.04 36.28 2 39 C4.31 39.66 6.62 40.32 9 41 C38.7 41.495 38.7 41.495 69 42 C68.67 43.32 68.34 44.64 68 46 C63.71 46.33 59.42 46.66 55 47 C53.02 48.32 51.04 49.64 49 51 C48.34 51 47.68 51 47 51 C46.34 52.65 45.68 54.3 45 56 C44.34 56 43.68 56 43 56 C42.34 57.32 41.68 58.64 41 60 C39.02 62.64 37.04 65.28 35 68 C32.525 68.99 32.525 68.99 30 70 C30 70.66 30 71.32 30 72 C28.68 73.32 27.36 74.64 26 76 C24.02 80.95 24.02 80.95 22 86 C21.67 86.99 21.34 87.98 21 89 C20.34 89 19.68 89 19 89 C18.67 91.31 18.34 93.62 18 96 C17.34 96 16.68 96 16 96 C16 96.66 16 97.32 16 98 C13.36 98.99 10.72 99.98 8 101 C6.35 102.65 4.7 104.3 3 106 C1.515 106.99 1.515 106.99 0 108 C0.33 106.68 0.66 105.36 1 104 C1.66 102.68 2.32 101.36 3 100 C4.98 99.01 6.96 98.02 9 97 C9.99 97 10.98 97 12 97 C12.66 95.68 13.32 94.36 14 93 C14.66 91.02 15.32 89.04 16 87 C16.66 87 17.32 87 18 87 C18.33 85.02 18.66 83.04 19 81 C21.97 76.545 21.97 76.545 25 72 C25.66 72 26.32 72 27 72 C27 71.01 27 70.02 27 69 C28.98 68.505 28.98 68.505 31 68 C31.495 66.515 31.495 66.515 32 65 C32.66 65 33.32 65 34 65 C34.66 63.35 35.32 61.7 36 60 C37.65 58.35 39.3 56.7 41 55 C41.99 55 42.98 55 44 55 C44.33 52.36 44.66 49.72 45 47 C45.66 46.67 46.32 46.34 47 46 C34.79 46 22.58 46 10 46 C7.36 45.01 4.72 44.02 2 43 C2 42.34 2 41.68 2 41 C0.02 40.67 -1.96 40.34 -4 40 C-4.33 37.36 -4.66 34.72 -5 32 C-5.66 32 -6.32 32 -7 32 C-7.33 30.68 -7.66 29.36 -8 28 C-8 24.37 -8 20.74 -8 17 C-7.01 16.67 -6.02 16.34 -5 16 C-4.67 13.36 -4.34 10.72 -4 8 C-3.01 5.69 -2.02 3.38 -1 1 C-0.67 0.67 -0.34 0.34 0 0 Z " fill="#CEDB44" transform="translate(445,552)"/>
<path d="M0 0 C1.65 0 3.3 0 5 0 C3.68 1.32 2.36 2.64 1 4 C0.34 4 -0.32 4 -1 4 C-1 4.66 -1 5.32 -1 6 C-3.97 8.31 -6.94 10.62 -10 13 C-14.62 16.96 -19.24 20.92 -24 25 C-26.31 27.31 -28.62 29.62 -31 32 C-36.445 38.93 -36.445 38.93 -42 46 C-43.32 48.31 -44.64 50.62 -46 53 C-46.66 53 -47.32 53 -48 53 C-48.33 53.99 -48.66 54.98 -49 56 C-50.98 56.495 -50.98 56.495 -53 57 C-53.99 56.67 -54.98 56.34 -56 56 C-56 54.02 -56 52.04 -56 50 C-51.38 43.73 -46.76 37.46 -42 31 C-39.69 28.36 -37.38 25.72 -35 23 C-31.37 20.03 -27.74 17.06 -24 14 C-20.04 11.36 -16.08 8.72 -12 6 C-8.37 4.35 -4.74 2.7 -1 1 C-0.67 0.67 -0.34 0.34 0 0 Z " fill="#F97765" transform="translate(641,517)"/>

<path d="M0 0 C0.99 0.495 0.99 0.495 2 1 C1.34 2.32 0.68 3.64 0 5 C-0.66 5 -1.32 5 -2 5 C-2.66 6.32 -3.32 7.64 -4 9 C-6.475 13.455 -6.475 13.455 -9 18 C-9.66 18 -10.32 18 -11 18 C-11.66 19.32 -12.32 20.64 -13 22 C-13.66 22.33 -14.32 22.66 -15 23 C-17.475 29.93 -17.475 29.93 -20 37 C-20.99 39.97 -21.98 42.94 -23 46 C-23.99 48.31 -24.98 50.62 -26 53 C-26.99 57.95 -26.99 57.95 -28 63 C-28.99 65.31 -29.98 67.62 -31 70 C-31.33 71.65 -31.66 73.3 -32 75 C-32.66 75 -33.32 75 -34 75 C-34.33 78.3 -34.66 81.6 -35 85 C-35.99 85 -36.98 85 -38 85 C-38.66 88.96 -39.32 92.92 -40 97 C-40.99 98.65 -41.98 100.3 -43 102 C-43.495 103.98 -43.495 103.98 -44 106 C-45.98 106.99 -45.98 106.99 -48 108 C-74.73 108.33 -101.46 108.66 -129 109 C-133.455 109.99 -133.455 109.99 -138 111 C-139.98 111 -141.96 111 -144 111 C-144 111.66 -144 112.32 -144 113 C-147.3 113.99 -150.6 114.98 -154 116 C-154 115.34 -154 114.68 -154 114 C-152.02 113.01 -152.02 113.01 -150 112 C-148.68 112 -147.36 112 -146 112 C-146 111.34 -146 110.68 -146 110 C-141.71 108.68 -137.42 107.36 -133 106 C-93.4 105.505 -93.4 105.505 -53 105 C-51.35 104.67 -49.7 104.34 -48 104 C-48 103.34 -48 102.68 -48 102 C-46.68 101.34 -45.36 100.68 -44 100 C-43.01 97.03 -42.02 94.06 -41 91 C-39.35 85.06 -37.7 79.12 -36 73 C-35.01 70.03 -34.02 67.06 -33 64 C-31.35 59.05 -29.7 54.1 -28 49 C-27.67 47.68 -27.34 46.36 -27 45 C-26.34 45 -25.68 45 -25 45 C-24.67 42.36 -24.34 39.72 -24 37 C-22.68 34.36 -21.36 31.72 -20 29 C-18.68 25.7 -17.36 22.4 -16 19 C-14.02 16.03 -12.04 13.06 -10 10 C-9.34 10 -8.68 10 -8 10 C-7.34 8.35 -6.68 6.7 -6 5 C-3.525 3.515 -3.525 3.515 -1 2 C-0.67 1.34 -0.34 0.68 0 0 Z " fill="#D1DC52" transform="translate(480,219)"/>
<path d="M0 0 C0.99 0 1.98 0 3 0 C3 1.65 3 3.3 3 5 C1.02 6.65 -0.96 8.3 -3 10 C-6.3 11.32 -9.6 12.64 -13 14 C-20.92 18.455 -20.92 18.455 -29 23 C-31.31 25.64 -33.62 28.28 -36 31 C-36.66 32.65 -37.32 34.3 -38 36 C-38.33 38.31 -38.66 40.62 -39 43 C-39.99 44.32 -40.98 45.64 -42 47 C-48.435 48.98 -48.435 48.98 -55 51 C-57.97 52.98 -60.94 54.96 -64 57 C-64.33 57.33 -64.66 57.66 -65 58 C-65.33 64.6 -65.66 71.2 -66 78 C-67.32 78.99 -68.64 79.98 -70 81 C-74.62 83.31 -79.24 85.62 -84 88 C-86.31 90.64 -88.62 93.28 -91 96 C-92.485 100.95 -92.485 100.95 -94 106 C-94.66 105.67 -95.32 105.34 -96 105 C-95.67 102.69 -95.34 100.38 -95 98 C-94.67 96.35 -94.34 94.7 -94 93 C-93.01 92.01 -92.02 91.02 -91 90 C-90.34 90 -89.68 90 -89 90 C-88.67 88.35 -88.34 86.7 -88 85 C-87.01 85 -86.02 85 -85 85 C-84.67 83.02 -84.34 81.04 -84 79 C-82.02 79.33 -80.04 79.66 -78 80 C-76.02 79.01 -76.02 79.01 -74 78 C-72.68 77.01 -71.36 76.02 -70 75 C-69.67 69.72 -69.34 64.44 -69 59 C-68.34 59 -67.68 59 -67 59 C-67.33 57.68 -67.66 56.36 -68 55 C-66.35 53.35 -64.7 51.7 -63 50 C-62.34 50 -61.68 50 -61 50 C-61 49.34 -61 48.68 -61 48 C-60.34 47.67 -59.68 47.34 -59 47 C-57.02 47 -55.04 47 -53 47 C-53 46.34 -53 45.68 -53 45 C-48.545 44.505 -48.545 44.505 -44 44 C-44 43.34 -44 42.68 -44 42 C-43.34 42 -42.68 42 -42 42 C-42 39.03 -42 36.06 -42 33 C-41.67 31.68 -41.34 30.36 -41 29 C-40.01 29 -39.02 29 -38 29 C-37.505 27.515 -37.505 27.515 -37 26 C-34.525 23.525 -34.525 23.525 -32 21 C-30.68 21 -29.36 21 -28 21 C-28 20.01 -28 19.02 -28 18 C-26.68 17.34 -25.36 16.68 -24 16 C-23.34 15.67 -22.68 15.34 -22 15 C-21.01 15.495 -21.01 15.495 -20 16 C-20 15.34 -20 14.68 -20 14 C-17.03 13.505 -17.03 13.505 -14 13 C-14 12.34 -14 11.68 -14 11 C-13.34 11 -12.68 11 -12 11 C-12 10.34 -12 9.68 -12 9 C-9.03 8.34 -6.06 7.68 -3 7 C-2.01 6.67 -1.02 6.34 0 6 C0 4.02 0 2.04 0 0 Z " fill="#9D3A2F" transform="translate(741,490)"/>


<path d="M0 0 C0.33 0 0.66 0 1 0 C0.67 3.63 0.34 7.26 0 11 C-0.99 13.64 -1.98 16.28 -3 19 C-4.98 19.99 -6.96 20.98 -9 22 C-12.96 22.495 -12.96 22.495 -17 23 C-17.99 25.475 -17.99 25.475 -19 28 C-19.66 35.92 -20.32 43.84 -21 52 C-21.66 52 -22.32 52 -23 52 C-23.66 55.3 -24.32 58.6 -25 62 C-25.99 62.66 -26.98 63.32 -28 64 C-28.99 64 -29.98 64 -31 64 C-32.485 68.95 -32.485 68.95 -34 74 C-34.33 75.32 -34.66 76.64 -35 78 C-35 84.93 -35 91.86 -35 99 C-33.68 103.62 -32.36 108.24 -31 113 C-30.34 115.97 -29.68 118.94 -29 122 C-27.68 122.66 -26.36 123.32 -25 124 C-25.99 124.99 -25.99 124.99 -27 126 C-27.66 126 -28.32 126 -29 126 C-31.31 121.05 -33.62 116.1 -36 111 C-36.99 107.04 -37.98 103.08 -39 99 C-39 93.72 -39 88.44 -39 83 C-37.68 78.05 -36.36 73.1 -35 68 C-32.36 62.72 -29.72 57.44 -27 52 C-26.01 49.03 -25.02 46.06 -24 43 C-23.34 37.72 -22.68 32.44 -22 27 C-21.01 24.69 -20.02 22.38 -19 20 C-18.67 19.67 -18.34 19.34 -18 19 C-14.7 18.34 -11.4 17.68 -8 17 C-6.68 15.68 -5.36 14.36 -4 13 C-2.68 8.71 -1.36 4.42 0 0 Z " fill="#C05444" transform="translate(478,645)"/>
<path d="M0 0 C2.31 0.33 4.62 0.66 7 1 C11.455 3.97 11.455 3.97 16 7 C22.93 11.95 22.93 11.95 30 17 C33.3 19.31 36.6 21.62 40 24 C45.445 26.475 45.445 26.475 51 29 C56.445 30.485 56.445 30.485 62 32 C67.28 32.99 72.56 33.98 78 35 C77.01 35.99 77.01 35.99 76 37 C72.7 37 69.4 37 66 37 C64.02 36.505 64.02 36.505 62 36 C59.03 35.01 56.06 34.02 53 33 C50.03 32.67 47.06 32.34 44 32 C42.68 30.68 41.36 29.36 40 28 C35.545 26.02 35.545 26.02 31 24 C30.01 23.34 29.02 22.68 28 22 C26.35 21.67 24.7 21.34 23 21 C22.34 19.68 21.68 18.36 21 17 C20.01 16.01 19.02 15.02 18 14 C17.01 12.35 16.02 10.7 15 9 C12.69 8.01 10.38 7.02 8 6 C4.37 6 0.74 6 -3 6 C-3.99 8.64 -4.98 11.28 -6 14 C-6.99 14.33 -7.98 14.66 -9 15 C-9.99 17.31 -10.98 19.62 -12 22 C-14.31 22.66 -16.62 23.32 -19 24 C-19.99 23.34 -20.98 22.68 -22 22 C-20.02 20.68 -18.04 19.36 -16 18 C-13.36 14.37 -10.72 10.74 -8 7 C-6.35 5.02 -4.7 3.04 -3 1 C-2.01 0.67 -1.02 0.34 0 0 Z " fill="#C35240" transform="translate(538,591)"/>
<path d="M0 0 C0.33 0 0.66 0 1 0 C1 2.64 1 5.28 1 8 C0.01 12.62 -0.98 17.24 -2 22 C-2.33 22.99 -2.66 23.98 -3 25 C-3 33.58 -3 42.16 -3 51 C-2.34 51 -1.68 51 -1 51 C-0.67 53.97 -0.34 56.94 0 60 C0.33 61.32 0.66 62.64 1 64 C1.99 64.33 2.98 64.66 4 65 C6.97 68.465 6.97 68.465 10 72 C10.66 72.33 11.32 72.66 12 73 C12 73.99 12 74.98 12 76 C13.98 75.505 13.98 75.505 16 75 C16.99 75.99 17.98 76.98 19 78 C19 78.66 19 79.32 19 80 C24.28 80.33 29.56 80.66 35 81 C35 79.02 35 77.04 35 75 C35.66 74.34 36.32 73.68 37 73 C37.99 74.98 38.98 76.96 40 79 C40 80.65 40 82.3 40 84 C36.04 84 32.08 84 28 84 C24.7 83.01 21.4 82.02 18 81 C14.7 79.02 11.4 77.04 8 75 C5.36 72.69 2.72 70.38 0 68 C-1.65 65.03 -3.3 62.06 -5 59 C-5.99 56.36 -6.98 53.72 -8 51 C-8.33 49.02 -8.66 47.04 -9 45 C-9 40.38 -9 35.76 -9 31 C-7.35 25.72 -5.7 20.44 -4 15 C-2.68 10.05 -1.36 5.1 0 0 Z " fill="#A44135" transform="translate(312,723)"/>

<path d="M0 0 C1.65 0 3.3 0 5 0 C5.495 0.99 5.495 0.99 6 2 C5.34 2.66 4.68 3.32 4 4 C2.68 3.67 1.36 3.34 0 3 C0 6.63 0 10.26 0 14 C-0.33 15.98 -0.66 17.96 -1 20 C-1.66 20 -2.32 20 -3 20 C-3.33 21.32 -3.66 22.64 -4 24 C-5.98 26.97 -5.98 26.97 -8 30 C-8.66 30 -9.32 30 -10 30 C-10 31.32 -10 32.64 -10 34 C-10.99 34.99 -11.98 35.98 -13 37 C-13.99 39.64 -14.98 42.28 -16 45 C-16.99 45 -17.98 45 -19 45 C-19 45.66 -19 46.32 -19 47 C-19.99 47.66 -20.98 48.32 -22 49 C-27.61 49.99 -33.22 50.98 -39 52 C-39.33 53.65 -39.66 55.3 -40 57 C-40.99 59.475 -40.99 59.475 -42 62 C-42.66 62.66 -43.32 63.32 -44 64 C-44.66 66.31 -45.32 68.62 -46 71 C-47.32 71.99 -48.64 72.98 -50 74 C-51.98 74 -53.96 74 -56 74 C-58.475 74.99 -58.475 74.99 -61 76 C-61.66 77.65 -62.32 79.3 -63 81 C-63.66 82.65 -64.32 84.3 -65 86 C-66.485 86.495 -66.485 86.495 -68 87 C-67.01 84.03 -66.02 81.06 -65 78 C-64.01 76.35 -63.02 74.7 -62 73 C-60.68 72.01 -59.36 71.02 -58 70 C-54.7 70 -51.4 70 -48 70 C-47.34 64.72 -46.68 59.44 -46 54 C-44.02 52.02 -42.04 50.04 -40 48 C-33.73 46.35 -27.46 44.7 -21 43 C-20.34 43 -19.68 43 -19 43 C-18.34 41.35 -17.68 39.7 -17 38 C-16.34 38 -15.68 38 -15 38 C-14.34 36.02 -13.68 34.04 -13 32 C-11.02 28.04 -9.04 24.08 -7 20 C-5.02 14.06 -3.04 8.12 -1 2 C-0.67 1.34 -0.34 0.68 0 0 Z " fill="#C05242" transform="translate(782,506)"/>
<path d="M0 0 C0.495 1.485 0.495 1.485 1 3 C0.34 3.99 -0.32 4.98 -1 6 C-3.31 6 -5.62 6 -8 6 C-11.63 5.67 -15.26 5.34 -19 5 C-19 5.66 -19 6.32 -19 7 C-22.465 9.475 -22.465 9.475 -26 12 C-26.66 12 -27.32 12 -28 12 C-28 12.66 -28 13.32 -28 14 C-29.32 14.99 -30.64 15.98 -32 17 C-32.495 18.485 -32.495 18.485 -33 20 C-33.66 20 -34.32 20 -35 20 C-35 20.66 -35 21.32 -35 22 C-36.65 22.99 -38.3 23.98 -40 25 C-40.33 25.66 -40.66 26.32 -41 27 C-41.66 27 -42.32 27 -43 27 C-43.66 28.32 -44.32 29.64 -45 31 C-46.98 32.65 -48.96 34.3 -51 36 C-57.27 36.99 -63.54 37.98 -70 39 C-74.95 39 -79.9 39 -85 39 C-88.3 38.34 -91.6 37.68 -95 37 C-95 36.01 -95 35.02 -95 34 C-91.04 34.66 -87.08 35.32 -83 36 C-78.05 36 -73.1 36 -68 36 C-59.09 33.525 -59.09 33.525 -50 31 C-47.03 28.36 -44.06 25.72 -41 23 C-39.02 20.36 -37.04 17.72 -35 15 C-32.36 11.7 -29.72 8.4 -27 5 C-24.69 3.68 -22.38 2.36 -20 1 C-16.37 1 -12.74 1 -9 1 C-8.01 1.99 -8.01 1.99 -7 3 C-5.02 3 -3.04 3 -1 3 C-0.67 2.01 -0.34 1.02 0 0 Z " fill="#BD5343" transform="translate(713,593)"/>
<path d="M0 0 C2.64 0 5.28 0 8 0 C8.99 1.32 9.98 2.64 11 4 C10.67 5.65 10.34 7.3 10 9 C6.04 10.98 6.04 10.98 2 13 C-4.435 14.98 -4.435 14.98 -11 17 C-13.64 17.99 -16.28 18.98 -19 20 C-19.99 20 -20.98 20 -22 20 C-21.34 18.68 -20.68 17.36 -20 16 C-17.36 13.36 -14.72 10.72 -12 8 C-10.68 7.01 -9.36 6.02 -8 5 C-7.34 5 -6.68 5 -6 5 C-6 4.34 -6 3.68 -6 3 C-4.02 2.01 -2.04 1.02 0 0 Z " fill="#FA7A67" transform="translate(398,726)"/>
<path d="M0 0 C5.94 0 11.88 0 18 0 C24.6 0.99 31.2 1.98 38 3 C40.31 3.66 42.62 4.32 45 5 C44.34 5.66 43.68 6.32 43 7 C37.39 6.67 31.78 6.34 26 6 C23.525 5.505 23.525 5.505 21 5 C14.4 5 7.8 5 1 5 C-1.31 5.66 -3.62 6.32 -6 7 C-10.62 7.33 -15.24 7.66 -20 8 C-22.97 8.99 -25.94 9.98 -29 11 C-29.99 11.33 -30.98 11.66 -32 12 C-34.31 12 -36.62 12 -39 12 C-37.68 11.34 -36.36 10.68 -35 10 C-32.69 9.01 -30.38 8.02 -28 7 C-20.41 5.02 -12.82 3.04 -5 1 C-3.35 0.67 -1.7 0.34 0 0 Z " fill="#C55443" transform="translate(698,484)"/>
<path d="M0 0 C2.97 0 5.94 0 9 0 C8.67 1.32 8.34 2.64 8 4 C6.68 6.31 5.36 8.62 4 11 C2.68 14.63 1.36 18.26 0 22 C-0.66 24.64 -1.32 27.28 -2 30 C-2 34.29 -2 38.58 -2 43 C-1.34 46.3 -0.68 49.6 0 53 C-0.33 54.32 -0.66 55.64 -1 57 C-1.33 58.65 -1.66 60.3 -2 62 C-2.66 60.68 -3.32 59.36 -4 58 C-4.33 55.36 -4.66 52.72 -5 50 C-5 45.38 -5 40.76 -5 36 C-3.68 28.08 -2.36 20.16 -1 12 C-0.67 11.34 -0.34 10.68 0 10 C0.66 10 1.32 10 2 10 C2.66 7.69 3.32 5.38 4 3 C1.03 3.99 -1.94 4.98 -5 6 C-5.99 6.66 -6.98 7.32 -8 8 C-18.395 9.485 -18.395 9.485 -29 11 C-28.67 10.34 -28.34 9.68 -28 9 C-22.72 7.02 -17.44 5.04 -12 3 C-8.04 2.01 -4.08 1.02 0 0 Z " fill="#BA5241" transform="translate(432,701)"/>
<path d="M0 0 C3.3 0.33 6.6 0.66 10 1 C10.99 1.99 11.98 2.98 13 4 C13.33 5.32 13.66 6.64 14 8 C13.34 8 12.68 8 12 8 C11.34 9.32 10.68 10.64 10 12 C9.01 12.495 9.01 12.495 8 13 C3.71 13 -0.58 13 -5 13 C-5.99 11.68 -6.98 10.36 -8 9 C-8 7.35 -8 5.7 -8 4 C-6.68 3.01 -5.36 2.02 -4 1 C-2.68 0.67 -1.36 0.34 0 0 Z " fill="#BE2617" transform="translate(674,692)"/>
<path d="M0 0 C0.99 0.33 1.98 0.66 3 1 C1.68 3.31 0.36 5.62 -1 8 C-4.96 12.95 -8.92 17.9 -13 23 C-15.475 25.475 -15.475 25.475 -18 28 C-23.94 33.94 -29.88 39.88 -36 46 C-40.29 49.3 -44.58 52.6 -49 56 C-49.66 55.34 -50.32 54.68 -51 54 C-50.34 54 -49.68 54 -49 54 C-48.67 52.68 -48.34 51.36 -48 50 C-46.68 50 -45.36 50 -44 50 C-44 49.34 -44 48.68 -44 48 C-43.01 48 -42.02 48 -41 48 C-41 46.68 -41 45.36 -41 44 C-40.34 44 -39.68 44 -39 44 C-38.67 43.01 -38.34 42.02 -38 41 C-36.35 40.01 -34.7 39.02 -33 38 C-31.02 37.505 -31.02 37.505 -29 37 C-29 36.01 -29 35.02 -29 34 C-27.68 32.68 -26.36 31.36 -25 30 C-23.35 28.35 -21.7 26.7 -20 25 C-19.01 23.02 -18.02 21.04 -17 19 C-15.35 19 -13.7 19 -12 19 C-12 18.01 -12 17.02 -12 16 C-10.35 14.35 -8.7 12.7 -7 11 C-5.35 8.03 -3.7 5.06 -2 2 C-1.34 1.34 -0.68 0.68 0 0 Z " fill="#9A3B31" transform="translate(780,682)"/>
<path d="M0 0 C0.66 0.66 1.32 1.32 2 2 C2.99 5.63 3.98 9.26 5 13 C5.66 16.63 6.32 20.26 7 24 C7.33 27.96 7.66 31.92 8 36 C8 41.94 8 47.88 8 54 C7.01 61.26 6.02 68.52 5 76 C4.34 77.32 3.68 78.64 3 80 C3.33 74.72 3.66 69.44 4 64 C4.33 62.35 4.66 60.7 5 59 C5 50.09 5 41.18 5 32 C4.67 31.67 4.34 31.34 4 31 C3.34 25.72 2.68 20.44 2 15 C1.34 11.37 0.68 7.74 0 4 C0 2.68 0 1.36 0 0 Z " fill="#98443D" transform="translate(806,544)"/>

<path d="M0 0 C2.64 0 5.28 0 8 0 C8 0.66 8 1.32 8 2 C9.32 2 10.64 2 12 2 C12 2.66 12 3.32 12 4 C8.04 4 4.08 4 0 4 C-1.65 6.97 -3.3 9.94 -5 13 C-5.66 13 -6.32 13 -7 13 C-7 14.65 -7 16.3 -7 18 C-8.65 19.65 -10.3 21.3 -12 23 C-14.31 23.66 -16.62 24.32 -19 25 C-19.33 25.99 -19.66 26.98 -20 28 C-20.66 28 -21.32 28 -22 28 C-22.33 29.65 -22.66 31.3 -23 33 C-23.66 33 -24.32 33 -25 33 C-24.34 31.02 -23.68 29.04 -23 27 C-21.35 24.69 -19.7 22.38 -18 20 C-16.02 20 -14.04 20 -12 20 C-9.36 14.72 -6.72 9.44 -4 4 C-2.68 2.68 -1.36 1.36 0 0 Z " fill="#BA5949" transform="translate(504,612)"/>

<path d="M0 0 C0.66 0.33 1.32 0.66 2 1 C1.34 2.98 0.68 4.96 0 7 C-1.32 7 -2.64 7 -4 7 C-4.66 8.65 -5.32 10.3 -6 12 C-6.99 12.495 -6.99 12.495 -8 13 C-9.485 15.475 -9.485 15.475 -11 18 C-12.32 19.65 -13.64 21.3 -15 23 C-15.33 24.65 -15.66 26.3 -16 28 C-17.65 27.67 -19.3 27.34 -21 27 C-20.34 25.35 -19.68 23.7 -19 22 C-17.68 19.69 -16.36 17.38 -15 15 C-12.69 12.36 -10.38 9.72 -8 7 C-4.04 3.535 -4.04 3.535 0 0 Z " fill="#BF4E3D" transform="translate(373,729)"/>

<path d="M0 0 C2.64 0 5.28 0 8 0 C8.33 0.66 8.66 1.32 9 2 C9 4.31 9 6.62 9 9 C7.68 9.99 6.36 10.98 5 12 C2.69 11.67 0.38 11.34 -2 11 C-2.33 9.02 -2.66 7.04 -3 5 C-2.67 4.01 -2.34 3.02 -2 2 C-1.34 2 -0.68 2 0 2 C0 1.34 0 0.68 0 0 Z " fill="#C12916" transform="translate(584,753)"/>
<path d="M0 0 C0.66 0 1.32 0 2 0 C1.67 3.63 1.34 7.26 1 11 C0.34 14.96 -0.32 18.92 -1 23 C-1.33 23.66 -1.66 24.32 -2 25 C-5.3 24.67 -8.6 24.34 -12 24 C-17.28 23.01 -22.56 22.02 -28 21 C-29.65 20.67 -31.3 20.34 -33 20 C-33 19.34 -33 18.68 -33 18 C-30.36 18 -27.72 18 -25 18 C-20.38 18.99 -15.76 19.98 -11 21 C-8.69 21 -6.38 21 -4 21 C-2.68 14.07 -1.36 7.14 0 0 Z " fill="#964337" transform="translate(644,597)"/>
<path d="M0 0 C0.99 0 1.98 0 3 0 C2.67 1.65 2.34 3.3 2 5 C-0.31 10.94 -2.62 16.88 -5 23 C-8.63 29.93 -12.26 36.86 -16 44 C-17.32 45.98 -18.64 47.96 -20 50 C-20.495 48.515 -20.495 48.515 -21 47 C-20.67 45.68 -20.34 44.36 -20 43 C-19.01 42.505 -19.01 42.505 -18 42 C-17.67 41.01 -17.34 40.02 -17 39 C-16.34 39 -15.68 39 -15 39 C-14.67 37.68 -14.34 36.36 -14 35 C-12.35 31.04 -10.7 27.08 -9 23 C-8.01 20.69 -7.02 18.38 -6 16 C-5.01 14.68 -4.02 13.36 -3 12 C-2.01 8.04 -1.02 4.08 0 0 Z " fill="#96392F" transform="translate(804,633)"/>
<path d="M0 0 C0.66 0.33 1.32 0.66 2 1 C0.02 7.93 -1.96 14.86 -4 22 C-5.65 26.95 -7.3 31.9 -9 37 C-10.65 40.63 -12.3 44.26 -14 48 C-15.32 49.98 -16.64 51.96 -18 54 C-18.33 54 -18.66 54 -19 54 C-19 52.02 -19 50.04 -19 48 C-18.34 48 -17.68 48 -17 48 C-16.67 46.68 -16.34 45.36 -16 44 C-15.34 44 -14.68 44 -14 44 C-13.01 40.7 -12.02 37.4 -11 34 C-9.68 29.71 -8.36 25.42 -7 21 C-6.01 18.03 -5.02 15.06 -4 12 C-3.34 9.69 -2.68 7.38 -2 5 C-1.34 3.35 -0.68 1.7 0 0 Z " fill="#CFDA50" transform="translate(791,304)"/>
<path d="M0 0 C2.31 0 4.62 0 7 0 C7.66 0.33 8.32 0.66 9 1 C8.67 3.31 8.34 5.62 8 8 C6.02 8.99 6.02 8.99 4 10 C1.69 10 -0.62 10 -3 10 C-3.33 9.67 -3.66 9.34 -4 9 C-4 6.69 -4 4.38 -4 2 C-2.68 2 -1.36 2 0 2 C0 1.34 0 0.68 0 0 Z " fill="#C72815" transform="translate(544,768)"/>
<path d="M0 0 C2.31 0 4.62 0 7 0 C7.99 0.66 8.98 1.32 10 2 C10 3.65 10 5.3 10 7 C8.68 7.99 7.36 8.98 6 10 C4.02 10 2.04 10 0 10 C-0.66 9.34 -1.32 8.68 -2 8 C-2 6.02 -2 4.04 -2 2 C-1.34 1.34 -0.68 0.68 0 0 Z " fill="#FB7764" transform="translate(565,633)"/>
<path d="M0 0 C0.66 0 1.32 0 2 0 C1.67 2.64 1.34 5.28 1 8 C-0.32 11.96 -1.64 15.92 -3 20 C-3.99 22.97 -4.98 25.94 -6 29 C-7.65 34.28 -9.3 39.56 -11 45 C-11.99 45.495 -11.99 45.495 -13 46 C-12.67 43.36 -12.34 40.72 -12 38 C-11.01 34.37 -10.02 30.74 -9 27 C-8.01 23.535 -8.01 23.535 -7 20 C-6.67 18.68 -6.34 17.36 -6 16 C-5.34 16 -4.68 16 -4 16 C-3.67 13.69 -3.34 11.38 -3 9 C-2.01 6.03 -1.02 3.06 0 0 Z " fill="#CED94B" transform="translate(806,256)"/>
<path d="M0 0 C2.97 0.33 5.94 0.66 9 1 C9 2.65 9 4.3 9 6 C8.01 6.33 7.02 6.66 6 7 C6 7.66 6 8.32 6 9 C3.36 9 0.72 9 -2 9 C-2.33 7.02 -2.66 5.04 -3 3 C-2.01 2.01 -1.02 1.02 0 0 Z " fill="#C12714" transform="translate(598,731)"/>


</svg>
